<?xml version="1.0" encoding="iso-8859-1"?>
<!-- Generator: Adobe Illustrator 19.0.0, SVG Export Plug-In . SVG Version: 6.00 Build 0)  -->
<svg version="1.1" id="Capa_1" xmlns="http://www.w3.org/2000/svg" xmlns:xlink="http://www.w3.org/1999/xlink" x="0px" y="0px"
	 viewBox="0 0 512 512" style="enable-background:new 0 0 512 512;" xml:space="preserve">
<g>
	<g>
		<path d="M285.866,0C177.647,0,89.6,88.047,89.6,196.267v31.445l-58.189,83.132c-1.826,2.611-2.048,6.007-0.58,8.832
			c1.468,2.825,4.386,4.591,7.569,4.591h51.2V384c0,32.93,26.795,59.733,59.733,59.733h34.133v59.733
			c0,4.719,3.823,8.533,8.533,8.533h221.867c4.719,0,8.533-3.814,8.533-8.533v-10.624c0.375-64.06,12.715-126.652,36.651-185.984
			c14.498-35.2,22.263-72.346,23.083-110.413c0-0.06,0-0.119,0-0.179C482.133,88.047,394.095,0,285.866,0z M443.238,300.425
			c-24.755,61.397-37.513,126.097-37.905,192.375v2.133h-204.8V435.2c0-4.719-3.823-8.533-8.533-8.533h-42.667
			c-23.526,0-42.667-19.14-42.667-42.667v-68.267c0-4.719-3.823-8.533-8.533-8.533H54.784l50.338-71.91
			c1.007-1.434,1.545-3.14,1.545-4.89v-34.133c0-98.816,80.384-179.2,179.2-179.2c98.782,0,179.149,80.341,179.2,179.106
			C464.281,232.09,456.942,267.153,443.238,300.425z"/>
	</g>
</g>
<g>
	<g>
		<path d="M286.097,93.645c-0.068,0-0.145,0-0.23,0c-56.354,0-102.263,45.79-102.4,102.17c-0.068,30.771,13.5,59.648,37.077,79.095
			c9.31,8.064,14.464,19.746,14.123,32.29v42.667c0,14.114,11.486,25.6,25.6,25.6h51.2c14.114,0,25.6-11.486,25.6-25.6v-44.749
			c0.205-11.998,5.649-23.236,15.07-30.916c22.989-19.422,36.164-47.829,36.13-77.926
			C388.386,139.819,342.553,93.781,286.097,93.645z M341.222,261.077c-13.21,10.778-20.949,26.726-21.231,43.913v44.885
			c0,4.71-3.823,8.533-8.533,8.533h-51.2c-4.702,0-8.533-3.823-8.533-8.533v-42.436c0.469-17.442-6.818-34.005-20.164-45.56
			c-19.772-16.307-31.087-40.371-31.027-66.014c0.111-46.993,38.374-85.146,85.333-85.146c0.068,0,0.137,0,0.188,0
			c47.053,0.111,85.248,38.477,85.137,85.53c0,0.009,0,0.017,0,0.026C371.225,221.346,360.251,245,341.222,261.077z"/>
	</g>
</g>
<g>
	<g>
		<rect x="243.2" y="307.2" width="85.333" height="17.067"/>
	</g>
</g>
<g>
	<g>
		<path d="M327.526,192.239c-1.485-2.773-4.378-4.506-7.526-4.506h-68.267c-3.149,0-6.033,1.732-7.526,4.514
			c-1.485,2.773-1.323,6.135,0.427,8.755l15.633,23.45v91.281h17.067v-93.867c0-1.681-0.503-3.337-1.434-4.736l-8.226-12.331h36.386
			l-8.226,12.331c-0.93,1.399-1.434,3.055-1.434,4.736v93.867h17.067v-91.281l15.633-23.458
			C328.84,198.383,329.011,195.012,327.526,192.239z"/>
	</g>
</g>
<g>
	<g>
		<rect x="277.333" y="42.667" width="17.067" height="34.133"/>
	</g>
</g>
<g>
	<g>
		<rect x="132.266" y="187.733" width="34.133" height="17.067"/>
	</g>
</g>
<g>
	<g>
		<rect x="405.333" y="179.2" width="34.133" height="17.067"/>
	</g>
</g>
<g>
	<g>
		
			<rect x="179.201" y="80.037" transform="matrix(0.7071 -0.7071 0.7071 0.7071 -14.4092 161.4935)" width="17.067" height="36.207"/>
	</g>
</g>
<g>
	<g>
		<rect x="365.909" y="89.615" transform="matrix(0.7071 -0.7071 0.7071 0.7071 43.073 300.2849)" width="36.207" height="17.066"/>
	</g>
</g>
<g>
	<g>
		
			<rect x="161.099" y="277.328" transform="matrix(0.7071 -0.7071 0.7071 0.7071 -149.6475 210.4415)" width="36.207" height="17.067"/>
	</g>
</g>
<g>
	<g>
		
			<rect x="383.998" y="267.777" transform="matrix(0.7071 -0.7071 0.7071 0.7071 -87.178 361.2951)" width="17.067" height="36.207"/>
	</g>
</g>
<g>
</g>
<g>
</g>
<g>
</g>
<g>
</g>
<g>
</g>
<g>
</g>
<g>
</g>
<g>
</g>
<g>
</g>
<g>
</g>
<g>
</g>
<g>
</g>
<g>
</g>
<g>
</g>
<g>
</g>
</svg>
