<?xml version="1.0" encoding="UTF-8"?>
<svg width="32px" height="32px" viewBox="0 0 32 32" version="1.1" xmlns="http://www.w3.org/2000/svg" xmlns:xlink="http://www.w3.org/1999/xlink">
    <!-- Generator: Sketch 52.1 (67048) - http://www.bohemiancoding.com/sketch -->
    <title>envelope 2 copy</title>
    <desc>Created with Sketch.</desc>
    <g id="Page-1" stroke="none" stroke-width="1" fill="none" fill-rule="evenodd">
        <g id="Desktop-HD-(1)" transform="translate(-175.000000, -164.000000)" fill="#6E8994" fill-rule="nonzero">
            <g id="envelope-2-copy" transform="translate(175.000000, 164.000000)">
                <path d="M32,11.6785714 L32,29.1428571 C32,29.9285714 31.7202381,30.6011905 31.1607143,31.1607143 C30.6011905,31.7202381 29.9285714,32 29.1428571,32 L2.85714286,32 C2.07142857,32 1.39880952,31.7202381 0.839285714,31.1607143 C0.279761905,30.6011905 0,29.9285714 0,29.1428571 L0,11.6785714 C0,11.5 0.0654761905,11.3571429 0.196428571,11.25 C0.291666667,11.1666667 0.523809524,10.9613095 0.892857143,10.6339286 C1.26190476,10.3065476 1.50892857,10.0922619 1.63392857,9.99107143 C1.75892857,9.88988095 2.0297619,9.66666667 2.44642857,9.32142857 C2.86309524,8.97619048 3.2797619,8.64583333 3.69642857,8.33035714 C4.11309524,8.01488095 4.68452381,7.58035714 5.41071429,7.02678571 C6.13690476,6.47321429 6.99107143,5.83630952 7.97321429,5.11607143 C8.95535714,4.39583333 10.1011905,3.55952381 11.4107143,2.60714286 C11.4702381,2.55952381 11.7827381,2.32142857 12.3482143,1.89285714 C12.9136905,1.46428571 13.3392857,1.15178571 13.625,0.955357143 C13.9107143,0.758928571 14.2916667,0.550595238 14.7678571,0.330357143 C15.2440476,0.110119048 15.6547619,0 16,0 C16.3452381,0 16.7559524,0.110119048 17.2321429,0.330357143 C17.7083333,0.550595238 18.0952381,0.761904762 18.3928571,0.964285714 C18.6904762,1.16666667 19.1130952,1.47619048 19.6607143,1.89285714 C20.2083333,2.30952381 20.5178571,2.54761905 20.5892857,2.60714286 C21.8988095,3.55952381 23.0446429,4.39583333 24.0267857,5.11607143 C25.0089286,5.83630952 25.8630952,6.47321429 26.5892857,7.02678571 C27.3154762,7.58035714 27.8869048,8.01488095 28.3035714,8.33035714 C28.7202381,8.64583333 29.1369048,8.97619048 29.5535714,9.32142857 C29.9702381,9.66666667 30.2410714,9.88988095 30.3660714,9.99107143 C30.4910714,10.0922619 30.7380952,10.3065476 31.1071429,10.6339286 C31.4761905,10.9613095 31.7083333,11.1666667 31.8035714,11.25 C31.9345238,11.3571429 32,11.5 32,11.6785714 Z M21.9285714,22.125 C25.0595238,19.8511905 27.1130952,18.3511905 28.0892857,17.625 C28.2202381,17.5297619 28.2946429,17.4077381 28.3125,17.2589286 C28.3303571,17.110119 28.2916667,16.9702381 28.1964286,16.8392857 L27.5178571,15.9107143 C27.422619,15.7797619 27.297619,15.7053571 27.1428571,15.6875 C26.9880952,15.6696429 26.8452381,15.7083333 26.7142857,15.8035714 C23.9642857,17.8154762 21.922619,19.3035714 20.5892857,20.2678571 C20.5297619,20.3035714 20.2202381,20.5357143 19.6607143,20.9642857 C19.1011905,21.3928571 18.6755952,21.7053571 18.3839286,21.9017857 C18.0922619,22.0982143 17.7083333,22.3065476 17.2321429,22.5267857 C16.7559524,22.7470238 16.3452381,22.8571429 16,22.8571429 C15.6547619,22.8571429 15.2440476,22.7470238 14.7678571,22.5267857 C14.2916667,22.3065476 13.9077381,22.0982143 13.6160714,21.9017857 C13.3244048,21.7053571 12.8988095,21.3928571 12.3392857,20.9642857 C11.7797619,20.5357143 11.4702381,20.3035714 11.4107143,20.2678571 C9.19642857,18.672619 7.1547619,17.1845238 5.28571429,15.8035714 C5.1547619,15.7083333 5.01190476,15.6696429 4.85714286,15.6875 C4.70238095,15.7053571 4.57738095,15.7797619 4.48214286,15.9107143 L3.80357143,16.8392857 C3.70833333,16.9702381 3.66964286,17.110119 3.6875,17.2589286 C3.70535714,17.4077381 3.7797619,17.5297619 3.91071429,17.625 C4.88690476,18.3511905 6.94047619,19.8511905 10.0714286,22.125 C10.1904762,22.2202381 10.4880952,22.4464286 10.9642857,22.8035714 C11.4404762,23.1607143 11.827381,23.4404762 12.125,23.6428571 C12.422619,23.8452381 12.8035714,24.0803571 13.2678571,24.3482143 C13.7321429,24.6160714 14.1934524,24.8154762 14.6517857,24.9464286 C15.110119,25.077381 15.5595238,25.1428571 16,25.1428571 C16.4404762,25.1428571 16.889881,25.077381 17.3482143,24.9464286 C17.8065476,24.8154762 18.2767857,24.610119 18.7589286,24.3303571 C19.2410714,24.0505952 19.625,23.8154762 19.9107143,23.625 C20.1964286,23.4345238 20.5833333,23.1517857 21.0714286,22.7767857 C21.5595238,22.4017857 21.8452381,22.1845238 21.9285714,22.125 Z" id="Shape"></path>
            </g>
        </g>
    </g>
</svg>