<svg xmlns="http://www.w3.org/2000/svg" viewBox="0 0 291.27 364.73"><defs><style>.cls-1,.cls-2{fill:#fff;}.cls-2{stroke:#000;stroke-miterlimit:10;stroke-width:7px;}</style></defs><title>Asset 1</title><g id="Layer_2" data-name="Layer 2"><g id="Layer_1-2" data-name="Layer 1"><path class="cls-1" d="M134.28,126.5C57.21,126.5,3.5,104.39,3.5,84.55c0-20.26,51-41.94,127-41.94s127,21.68,127,41.94S210.39,126.5,134.28,126.5Z"/><path d="M130.5,46.11c34.09,0,66.05,4.58,90,12.92,21,7.31,33.52,16.85,33.52,25.52s-11.86,18.35-31.72,25.56c-22.92,8.31-54.17,12.89-88,12.89s-67.37-4.72-91.95-13C20.54,102.75,7,93,7,84.55,7,75.88,19.53,66.34,40.52,59c23.93-8.34,55.89-12.92,90-12.92m0-7C58.43,39.11,0,59.45,0,84.55S62.2,130,134.28,130,261,109.65,261,84.55,202.57,39.11,130.5,39.11Z"/><path class="cls-1" d="M133,81.05c-25.83,0-43.19-9-43.36-9.1l-.19-.1-.19-.08c-7.88-3-7.84-6.8-7.77-13,0-.44,0-.88,0-1.32.35-1.88,2.06-11.31,3-20,1-9.59,1-24.07,1-24.68,0-4.92,3.6-8.94,8.1-9.17A160.51,160.51,0,0,0,130,7.73a190.57,190.57,0,0,0,38.36-4.22c4.52.2,8.14,4.24,8.14,9.17,0,.44,0,10.79,1,23.4.06,5.36,3.3,20.34,4,23.46-.18,5.68-4.8,10.12-9.13,12.41l-.17.09-.16.11C171.91,72.23,158.43,81.05,133,81.05Z"/><path d="M168.59,7A5.58,5.58,0,0,1,173,12.68c0,.44,0,10.87,1,23.57.11,5.56,3,19.15,4,23.58-.35,4-3.9,7.26-7.24,9l-.34.18-.32.22c-.13.08-12.9,8.3-37.07,8.3-24.75,0-41.58-8.62-41.73-8.7l-.37-.19-.39-.15c-5.61-2.16-5.59-3.77-5.52-9.75,0-.34,0-.68,0-1,.45-2.48,2.07-11.56,3-20,1-9.76,1-24.42,1-25a5.57,5.57,0,0,1,4.35-5.63A165.65,165.65,0,0,0,130,11.23,194.56,194.56,0,0,0,168.59,7M168,0a187.31,187.31,0,0,1-38,4.23A156.57,156.57,0,0,1,94,0C87.4,0,82,5.71,82,12.68c0,0,0,14.8-1,24.31s-3,20.08-3,20.08c0,7-1,13.74,10,18,0,0,18,9.51,45,9.51S174,75,174,75c6-3.17,11-8.88,11-15.85,0,0-4-18-4-23.26-1-12.68-1-23.25-1-23.25C180,5.71,174.6,0,168,0Z"/><path class="cls-2" d="M81.49,51.72s24,11.17,48,11.17c0,0,23,3.17,49-12.69"/><path class="cls-2" d="M107.05,185.5l-26-2c-6.6,0-10-4-12-12l-5-18c-1-10,5.4-12,12-12l33,2a12,12,0,0,1,12,12l-2,18A12,12,0,0,1,107.05,185.5Z"/><path class="cls-2" d="M154,185.5l26-2c6.6,0,10-4,12-12l5-18c1-10-5.4-12-12-12l-33,2a12,12,0,0,0-12,12l2,18A12,12,0,0,0,154,185.5Z"/><line class="cls-2" x1="121.29" y1="162.29" x2="142.55" y2="162.29"/><path d="M244,151.36s-41.6,27.28-33.8,78.93c0,0,5.61,29.74,37.18,58.09,32.31,29,14.13,76.35,14.13,76.35s28.31-50.6-20.47-101.05c0,0-39.67-29.91-11.87-71.46C229.14,192.22,251.71,165,244,151.36Z"/><path d="M250.38,100.35l-1.32-.07c-6.66,6.74-16.84,11.83-25.79,15.32,3,12.4,16,21.4,16,21.4,31,24-9.19,66.64-9.19,66.64-21.81,31.36,19.1,60.29,19.1,60.29C233,233.31,255,214.45,255,214.45c30.78-23.48,35-47.3,35-47.3C299.79,98,250.38,100.35,250.38,100.35Z"/></g></g></svg>