<?xml version="1.0" encoding="utf-8"?>
<!-- Generator: Adobe Illustrator 22.1.0, SVG Export Plug-In . SVG Version: 6.00 Build 0)  -->
<svg version="1.1" id="Layer_1" xmlns="http://www.w3.org/2000/svg" xmlns:xlink="http://www.w3.org/1999/xlink" x="0px" y="0px"
	 viewBox="0 0 612 1029.1" style="enable-background:new 0 0 612 1029.1;" xml:space="preserve">
<style type="text/css">
	.st0{fill:#E44F50;}
	.st1{fill:none;stroke:#D9D1CF;stroke-miterlimit:10;}
	.st2{fill:#D9D1CF;}
	.st3{font-family:'MyriadPro-Regular';}
	.st4{font-size:10px;}
	.st5{fill:#FFFFFF;}
	.st6{font-family:'ProximaNova-Medium';}
	.st7{font-size:6.5818px;}
	.st8{fill:#F9B6AD;}
	.st9{fill:#74CCE5;}
	.st10{fill:#6D6E71;}
	.st11{font-family:'CenturyGothic-Bold';}
	.st12{font-size:12px;}
	.st13{letter-spacing:1;}
	.st14{fill:none;stroke:#FFFFFF;stroke-width:2;stroke-linecap:round;stroke-miterlimit:10;}
	.st15{fill:#EDF0F1;}
	.st16{font-size:6.4017px;}
	.st17{font-size:7.0428px;}
	.st18{fill:none;stroke:#FFFFFF;stroke-miterlimit:10;}
	.st19{fill:none;stroke:#FFFFFF;stroke-width:0.5;stroke-miterlimit:10;}
</style>
<g>
	<path class="st0" d="M238.1,120.6h8.8v3.3h-5.5v3.2h5.5v3.3h-5.5v8h-3.4V120.6z"/>
	<path class="st0" d="M260.6,120.1c2.5,0,4.7,0.9,6.5,2.7c1.8,1.8,2.7,4,2.7,6.7c0,2.6-0.9,4.8-2.7,6.6c-1.8,1.8-4,2.7-6.5,2.7
		c-2.7,0-4.9-0.9-6.7-2.8c-1.8-1.8-2.7-4-2.7-6.6c0-1.7,0.4-3.3,1.2-4.7c0.8-1.4,2-2.6,3.4-3.4C257.4,120.6,258.9,120.1,260.6,120.1
		z M260.5,123.4c-1.6,0-3,0.6-4.2,1.7c-1.1,1.1-1.7,2.6-1.7,4.4c0,2,0.7,3.5,2.1,4.7c1.1,0.9,2.4,1.3,3.8,1.3c1.6,0,3-0.6,4.1-1.7
		c1.1-1.2,1.7-2.6,1.7-4.3c0-1.7-0.6-3.1-1.7-4.3C263.6,124,262.2,123.4,260.5,123.4z"/>
	<path class="st0" d="M282.2,120.1c2.5,0,4.7,0.9,6.5,2.7c1.8,1.8,2.7,4,2.7,6.7c0,2.6-0.9,4.8-2.7,6.6c-1.8,1.8-4,2.7-6.5,2.7
		c-2.7,0-4.9-0.9-6.7-2.8c-1.8-1.8-2.7-4-2.7-6.6c0-1.7,0.4-3.3,1.2-4.7c0.8-1.4,2-2.6,3.4-3.4C279,120.6,280.5,120.1,282.2,120.1z
		 M282.1,123.4c-1.6,0-3,0.6-4.2,1.7c-1.1,1.1-1.7,2.6-1.7,4.4c0,2,0.7,3.5,2.1,4.7c1.1,0.9,2.4,1.3,3.8,1.3c1.6,0,3-0.6,4.1-1.7
		c1.1-1.2,1.7-2.6,1.7-4.3c0-1.7-0.6-3.1-1.7-4.3C285.2,124,283.8,123.4,282.1,123.4z"/>
	<path class="st0" d="M295.4,120.6h4c2.6,0,4.5,0.3,5.8,1c1.3,0.6,2.3,1.7,3.1,3.1c0.8,1.4,1.2,3.1,1.2,5.1c0,1.4-0.2,2.6-0.7,3.8
		c-0.5,1.1-1.1,2.1-1.9,2.9c-0.8,0.8-1.7,1.3-2.6,1.6c-0.9,0.3-2.6,0.4-4.9,0.4h-4.1V120.6z M298.8,123.8v11.2h1.6
		c1.5,0,2.7-0.2,3.4-0.5c0.7-0.4,1.3-1,1.7-1.8c0.4-0.8,0.7-1.9,0.7-3.1c0-1.9-0.5-3.4-1.6-4.4c-1-0.9-2.5-1.4-4.6-1.4H298.8z"/>
	<path class="st0" d="M318.3,120.6h3.5l4.5,12.6l4.5-12.6h3.5l-6.4,17.8h-3.3L318.3,120.6z"/>
	<path class="st0" d="M340,120.6h3.4v17.8H340V120.6z"/>
	<path class="st0" d="M350.4,138.4v-17.8h2.8c1.6,0,2.8,0.1,3.6,0.3c1.1,0.3,1.9,0.8,2.5,1.6c0.6,0.8,0.9,1.7,0.9,2.7
		c0,0.7-0.1,1.3-0.4,1.8c-0.3,0.6-0.8,1.1-1.4,1.6c1.1,0.5,1.9,1.1,2.4,1.9c0.5,0.8,0.8,1.7,0.8,2.7c0,1-0.3,1.9-0.8,2.7
		c-0.5,0.8-1.2,1.4-2,1.8c-0.8,0.4-1.9,0.6-3.4,0.6H350.4z M353.8,123.8v3.8h0.7c0.8,0,1.4-0.2,1.8-0.5c0.4-0.3,0.6-0.8,0.6-1.4
		c0-0.6-0.2-1-0.6-1.3c-0.4-0.3-1-0.5-1.7-0.5H353.8z M353.8,130.6v4.6h0.8c1.4,0,2.4-0.2,2.8-0.5c0.5-0.4,0.7-0.9,0.7-1.5
		c0-0.8-0.3-1.4-0.9-1.8c-0.6-0.4-1.5-0.7-2.9-0.7H353.8z"/>
	<path class="st0" d="M368,120.6h9.7v3.3h-6.4v3.2h6.4v3.3h-6.4v4.7h6.4v3.3H368V120.6z"/>
</g>
<g>
	<line class="st1" x1="378.2" y1="208.8" x2="576.9" y2="208.8"/>
	<line class="st1" x1="38.9" y1="208.8" x2="237.6" y2="208.8"/>
	<rect x="237.6" y="202.2" class="st1" width="140.7" height="13.3"/>
</g>
<text transform="matrix(1 0 0 1 274.0415 212.4279)" class="st2 st3 st4">COLOR PALETTE</text>
<g>
	<path class="st0" d="M204.6,260.7c0,11.8-9.5,21.3-21.3,21.3s-21.3-9.5-21.3-21.3c0-11.8,9.5-21.3,21.3-21.3
		S204.6,248.9,204.6,260.7z"/>
	<text transform="matrix(1 0 0 1 173.9579 262.3223)" class="st5 st6 st7">e44f50</text>
</g>
<g>
	<path class="st8" d="M261.7,260.7c0,11.8-9.5,21.3-21.3,21.3c-11.8,0-21.3-9.5-21.3-21.3c0-11.8,9.5-21.3,21.3-21.3
		C252.2,239.4,261.7,248.9,261.7,260.7z"/>
	<text transform="matrix(1 0 0 1 230.7778 262.3223)" class="st5 st6 st7">f9b6ad</text>
</g>
<g>
	<path class="st9" d="M318.8,260.7c0,11.8-9.5,21.3-21.3,21.3c-11.8,0-21.3-9.5-21.3-21.3c0-11.8,9.5-21.3,21.3-21.3
		C309.3,239.4,318.8,248.9,318.8,260.7z"/>
	<text transform="matrix(1 0 0 1 287.8788 262.3223)" class="st9 st6 st7">74cce5</text>
</g>
<g>
	<path class="st2" d="M375.9,260.7c0,11.8-9.5,21.3-21.3,21.3c-11.8,0-21.3-9.5-21.3-21.3c0-11.8,9.5-21.3,21.3-21.3
		C366.4,239.4,375.9,248.9,375.9,260.7z"/>
	<text transform="matrix(1 0 0 1 345.1278 262.3223)" class="st5 st6 st7">d9d1cf</text>
</g>
<g>
	<path class="st10" d="M433,260.7c0,11.8-9.5,21.3-21.3,21.3c-11.8,0-21.3-9.5-21.3-21.3c0-11.8,9.5-21.3,21.3-21.3
		C423.5,239.4,433,248.9,433,260.7z"/>
	<text transform="matrix(1 0 0 1 401.5038 262.3223)" class="st5 st6 st7">6d6e71</text>
</g>
<g>
	<line class="st1" x1="378.2" y1="334.2" x2="576.9" y2="334.2"/>
	<line class="st1" x1="38.9" y1="334.2" x2="237.6" y2="334.2"/>
	<rect x="237.6" y="327.5" class="st1" width="140.7" height="13.3"/>
</g>
<text transform="matrix(1 0 0 1 293.7915 337.7815)" class="st2 st3 st4">FONTS</text>
<g>
	<line class="st1" x1="378.2" y1="488.9" x2="576.9" y2="488.9"/>
	<line class="st1" x1="38.9" y1="488.9" x2="237.6" y2="488.9"/>
	<rect x="237.6" y="482.2" class="st1" width="140.7" height="13.3"/>
</g>
<text transform="matrix(1 0 0 1 287.7964 492.4817)" class="st2 st3 st4">BUTTONS</text>
<g>
	<line class="st1" x1="378.2" y1="748.4" x2="576.9" y2="748.4"/>
	<line class="st1" x1="38.9" y1="748.4" x2="237.6" y2="748.4"/>
	<rect x="237.6" y="741.7" class="st1" width="140.7" height="13.3"/>
</g>
<text transform="matrix(1 0 0 1 294.6162 752.0021)" class="st2 st3 st4">ICONS</text>
<g>
	<line class="st1" x1="378.2" y1="885.1" x2="576.9" y2="885.1"/>
	<line class="st1" x1="38.9" y1="885.1" x2="237.6" y2="885.1"/>
	<rect x="237.6" y="878.4" class="st1" width="140.7" height="13.3"/>
</g>
<text transform="matrix(1 0 0 1 273.4419 888.6688)" class="st2 st3 st4">PAGE ELEMENTS</text>
<g>
	<path class="st0" d="M343.2,60.6c-3.7-19.5-22.6-32.2-42-28.5c-7.9,1.5-14.6,5.5-19.6,10.9l3.8,9.1c5.8-2.1,11.6,11.5,11.6,11.5
		c8.7,16.1,9,27.4,9,27.4c-0.3,2.4-2.4,3.1-2.4,3.1c-3.1,0.3-3.9-1.7-3.9-1.7L278,47.5c-5,7.6-7.2,17-5.3,26.6
		c3.3,17.4,18.7,29.4,35.8,29.1l7.3-21.5c-2.5-1.4-3.9-4.2-3-6.8l10-29.4c0.2-0.5,0.7-0.7,1.2-0.5c0.5,0.2,0.8,0.7,0.7,1.2
		l-7.2,21.2l-0.1,0.3c-0.2,0.6,0.2,1.2,0.8,1.4c0.6,0.2,1.3-0.1,1.5-0.6l0.1-0.3l7.2-21.2c0.2-0.5,0.7-0.7,1.2-0.5
		c0.5,0.2,0.8,0.7,0.6,1.2l-7.2,21.2l0,0l-0.1,0.3c-0.2,0.6,0.2,1.2,0.8,1.4c0.6,0.2,1.3-0.1,1.5-0.6l7.4-21.6
		c0.2-0.4,0.7-0.5,1.1-0.4c0.5,0.2,0.8,0.7,0.7,1.1l-7.3,21.5c-0.2,0.6,0.2,1.2,0.8,1.4c0.6,0.2,1.3-0.1,1.5-0.6l0.1-0.3l0,0
		l7.2-21.2c0.2-0.5,0.7-0.7,1.2-0.5c0.5,0.2,0.8,0.7,0.6,1.2l-10,29.4c-0.9,2.6-3.7,4-6.5,3.5l-6.6,19.4c0.2,0,0.5-0.1,0.7-0.1
		C334.2,98.9,346.9,80.1,343.2,60.6z"/>
	<path class="st5" d="M336.4,49.3c-0.5-0.2-1.1,0.1-1.2,0.5L327.9,71l0,0l-0.1,0.3c-0.2,0.6-0.9,0.9-1.5,0.6c-0.6-0.2-1-0.8-0.8-1.4
		l7.3-21.5c0.1-0.5-0.2-0.9-0.7-1.1c-0.4-0.2-0.9,0-1.1,0.4l-7.4,21.6c-0.2,0.6-0.9,0.9-1.5,0.6c-0.6-0.2-1-0.8-0.8-1.4l0.1-0.3l0,0
		l7.2-21.2c0.2-0.5-0.1-1-0.6-1.2c-0.5-0.2-1.1,0.1-1.2,0.5l-7.2,21.2l-0.1,0.3c-0.2,0.6-0.9,0.8-1.5,0.6c-0.6-0.2-1-0.8-0.8-1.4
		l0.1-0.3l7.2-21.2c0.2-0.5-0.1-1-0.7-1.2c-0.5-0.2-1.1,0.1-1.2,0.5l-10,29.4c-0.9,2.6,0.4,5.4,3,6.8l-7.3,21.5
		c1.8,0,3.7-0.2,5.5-0.5l6.6-19.4c2.8,0.5,5.6-1,6.5-3.5l10-29.4C337.2,50,336.9,49.4,336.4,49.3z"/>
	<path class="st5" d="M303.5,94.1c0,0,2.1-0.7,2.4-3.1c0,0-0.2-11.3-9-27.4c0,0-5.8-13.7-11.6-11.5l-3.8-9.1
		c-1.3,1.4-2.5,2.9-3.5,4.5l21.6,44.9C299.6,92.4,300.4,94.4,303.5,94.1z"/>
</g>
<path class="st5" d="M312.4,45"/>
<g>
	<g>
		<g>
			<path class="st2" d="M196.1,356.8h-1.8v-1.3h5.2v1.3h-1.8v5.5h-1.5V356.8z"/>
			<path class="st2" d="M201.8,356c0,0.4-0.3,0.8-0.8,0.8c-0.5,0-0.8-0.3-0.8-0.8c0-0.4,0.3-0.8,0.8-0.8
				C201.5,355.2,201.8,355.5,201.8,356z M200.2,362.2v-4.9h1.5v4.9H200.2z"/>
			<path class="st2" d="M204.6,355.9v1.4h1.1v1.1h-1.1v1.8c0,0.6,0.1,0.9,0.6,0.9c0.2,0,0.3,0,0.5,0l0,1.2c-0.2,0.1-0.6,0.1-1,0.1
				c-0.5,0-0.9-0.2-1.1-0.4c-0.3-0.3-0.4-0.8-0.4-1.5v-2h-0.6v-1.1h0.6v-1.1L204.6,355.9z"/>
			<path class="st2" d="M206.6,355.1h1.5v7.1h-1.5V355.1z"/>
			<path class="st2" d="M210.5,360.3c0,0.6,0.7,0.9,1.4,0.9c0.5,0,0.9-0.1,1.3-0.2l0.2,1c-0.5,0.2-1.1,0.3-1.8,0.3
				c-1.7,0-2.6-1-2.6-2.5c0-1.2,0.8-2.6,2.5-2.6c1.6,0,2.2,1.2,2.2,2.4c0,0.3,0,0.5-0.1,0.6H210.5z M212.3,359.2c0-0.4-0.2-1-0.9-1
				c-0.6,0-0.9,0.6-0.9,1H212.3z"/>
			<path class="st2" d="M221.6,362c-0.3,0.2-1,0.3-1.8,0.3c-1.9,0-3.3-1.2-3.3-3.4c0-2.1,1.4-3.5,3.5-3.5c0.8,0,1.4,0.2,1.6,0.3
				l-0.2,0.7c-0.3-0.2-0.8-0.3-1.4-0.3c-1.6,0-2.6,1-2.6,2.8c0,1.6,0.9,2.7,2.6,2.7c0.5,0,1.1-0.1,1.4-0.3L221.6,362z"/>
			<path class="st2" d="M223.2,360c0,1.2,0.8,1.7,1.7,1.7c0.6,0,1-0.1,1.3-0.2l0.1,0.6c-0.3,0.1-0.8,0.3-1.6,0.3
				c-1.5,0-2.4-1-2.4-2.4s0.9-2.6,2.3-2.6c1.6,0,2,1.4,2,2.3c0,0.2,0,0.3,0,0.4H223.2z M225.8,359.3c0-0.6-0.2-1.4-1.2-1.4
				c-0.9,0-1.3,0.8-1.3,1.4H225.8z"/>
			<path class="st2" d="M227.7,358.7c0-0.5,0-0.9,0-1.3h0.8l0,0.8h0c0.2-0.5,0.8-0.9,1.6-0.9c0.7,0,1.7,0.4,1.7,2.1v2.9h-0.9v-2.8
				c0-0.8-0.3-1.4-1.1-1.4c-0.6,0-1,0.4-1.2,0.9c0,0.1-0.1,0.3-0.1,0.4v2.9h-0.9V358.7z"/>
			<path class="st2" d="M234.3,356v1.4h1.3v0.7h-1.3v2.6c0,0.6,0.2,0.9,0.7,0.9c0.2,0,0.4,0,0.5-0.1l0,0.7c-0.2,0.1-0.4,0.1-0.8,0.1
				c-0.4,0-0.7-0.1-0.9-0.4c-0.2-0.3-0.3-0.7-0.3-1.3V358h-0.8v-0.7h0.8v-1.2L234.3,356z"/>
			<path class="st2" d="M240.6,360.9c0,0.5,0,0.9,0,1.3h-0.8l0-0.8h0c-0.2,0.4-0.7,0.9-1.6,0.9c-0.8,0-1.7-0.4-1.7-2.1v-2.8h0.9v2.7
				c0,0.9,0.3,1.5,1.1,1.5c0.6,0,1-0.4,1.2-0.8c0-0.1,0.1-0.3,0.1-0.5v-3h0.9V360.9z"/>
			<path class="st2" d="M242.1,358.9c0-0.6,0-1.1,0-1.5h0.8l0,0.9h0c0.2-0.6,0.7-1.1,1.3-1.1c0.1,0,0.2,0,0.2,0v0.8
				c-0.1,0-0.2,0-0.3,0c-0.6,0-1.1,0.5-1.2,1.1c0,0.1,0,0.3,0,0.4v2.6h-0.9V358.9z"/>
			<path class="st2" d="M245.7,357.4l1.1,2.9c0.1,0.3,0.2,0.7,0.3,1h0c0.1-0.3,0.2-0.7,0.3-1l1-2.8h0.9l-1.3,3.4
				c-0.6,1.7-1.1,2.5-1.7,3c-0.4,0.4-0.9,0.5-1.1,0.6l-0.2-0.7c0.2-0.1,0.5-0.2,0.8-0.4c0.2-0.2,0.5-0.5,0.7-1
				c0-0.1,0.1-0.2,0.1-0.2c0,0,0-0.1-0.1-0.2l-1.8-4.5H245.7z"/>
			<path class="st2" d="M257.3,361.9c-0.4,0.1-1.2,0.4-2.1,0.4c-1,0-1.9-0.3-2.5-0.9c-0.6-0.6-0.9-1.5-0.9-2.5c0-2,1.4-3.5,3.6-3.5
				c0.8,0,1.4,0.2,1.7,0.3l-0.2,0.7c-0.4-0.2-0.8-0.3-1.5-0.3c-1.6,0-2.7,1-2.7,2.7c0,1.7,1,2.7,2.6,2.7c0.6,0,1-0.1,1.2-0.2v-2
				h-1.4v-0.7h2.2V361.9z"/>
			<path class="st2" d="M263,359.8c0,1.8-1.2,2.6-2.4,2.6c-1.3,0-2.3-1-2.3-2.5c0-1.6,1.1-2.6,2.4-2.6
				C262.1,357.3,263,358.3,263,359.8z M259.2,359.8c0,1.1,0.6,1.9,1.5,1.9c0.8,0,1.5-0.8,1.5-1.9c0-0.8-0.4-1.9-1.4-1.9
				C259.6,357.9,259.2,358.9,259.2,359.8z"/>
			<path class="st2" d="M265.2,356v1.4h1.3v0.7h-1.3v2.6c0,0.6,0.2,0.9,0.7,0.9c0.2,0,0.4,0,0.5-0.1l0,0.7c-0.2,0.1-0.4,0.1-0.8,0.1
				c-0.4,0-0.7-0.1-0.9-0.4c-0.2-0.3-0.3-0.7-0.3-1.3V358h-0.8v-0.7h0.8v-1.2L265.2,356z"/>
			<path class="st2" d="M267.4,355.1h0.9v3h0c0.1-0.2,0.4-0.5,0.6-0.6c0.3-0.2,0.6-0.2,0.9-0.2c0.6,0,1.7,0.4,1.7,2.1v2.9h-0.9v-2.8
				c0-0.8-0.3-1.4-1.1-1.4c-0.6,0-1,0.4-1.2,0.9c0,0.1-0.1,0.2-0.1,0.4v2.9h-0.9V355.1z"/>
			<path class="st2" d="M274,356c0,0.3-0.2,0.5-0.6,0.5c-0.3,0-0.5-0.2-0.5-0.5c0-0.3,0.2-0.5,0.5-0.5
				C273.7,355.5,274,355.7,274,356z M273,362.2v-4.8h0.9v4.8H273z"/>
			<path class="st2" d="M278.8,362c-0.2,0.1-0.7,0.3-1.4,0.3c-1.5,0-2.4-1-2.4-2.5c0-1.5,1-2.6,2.6-2.6c0.5,0,1,0.1,1.2,0.2
				l-0.2,0.7c-0.2-0.1-0.5-0.2-1-0.2c-1.1,0-1.7,0.8-1.7,1.8c0,1.1,0.7,1.8,1.7,1.8c0.5,0,0.8-0.1,1.1-0.2L278.8,362z"/>
			<path class="st2" d="M281.2,362.6l2.8-7.2h0.7l-2.8,7.2H281.2z"/>
			<path class="st2" d="M289,362.2l-2.2-6.7h0.9l1,3.3c0.3,0.9,0.5,1.7,0.7,2.5h0c0.2-0.8,0.5-1.6,0.8-2.5l1.1-3.3h0.9l-2.4,6.7H289
				z"/>
			<path class="st2" d="M294.2,360.1l-0.7,2.1h-0.9l2.3-6.7h1l2.3,6.7h-0.9l-0.7-2.1H294.2z M296.4,359.4l-0.7-1.9
				c-0.1-0.4-0.2-0.8-0.3-1.2h0c-0.1,0.4-0.2,0.8-0.3,1.2l-0.7,1.9H296.4z"/>
			<path class="st2" d="M300.8,356.5L300.8,356.5l-1.1,0.6l-0.2-0.7l1.4-0.8h0.7v6.5h-0.8V356.5z"/>
			<path class="st2" d="M308.3,358.9c0,2.2-0.8,3.4-2.3,3.4c-1.3,0-2.1-1.2-2.1-3.3c0-2.2,0.9-3.4,2.3-3.4
				C307.6,355.6,308.3,356.8,308.3,358.9z M304.8,359c0,1.7,0.5,2.6,1.3,2.6c0.9,0,1.3-1,1.3-2.7c0-1.6-0.4-2.6-1.3-2.6
				C305.4,356.3,304.8,357.2,304.8,359z"/>
			<path class="st2" d="M313.5,358.9c0,2.2-0.8,3.4-2.3,3.4c-1.3,0-2.1-1.2-2.1-3.3c0-2.2,0.9-3.4,2.3-3.4
				C312.7,355.6,313.5,356.8,313.5,358.9z M309.9,359c0,1.7,0.5,2.6,1.3,2.6c0.9,0,1.3-1,1.3-2.7c0-1.6-0.4-2.6-1.3-2.6
				C310.5,356.3,309.9,357.2,309.9,359z"/>
			<path class="st2" d="M322.1,356.8h-1.8v-1.3h5.2v1.3h-1.8v5.5h-1.5V356.8z"/>
			<path class="st2" d="M327.4,360.3c0,0.6,0.7,0.9,1.4,0.9c0.5,0,0.9-0.1,1.3-0.2l0.2,1c-0.5,0.2-1.1,0.3-1.8,0.3
				c-1.7,0-2.6-1-2.6-2.5c0-1.2,0.8-2.6,2.5-2.6c1.6,0,2.2,1.2,2.2,2.4c0,0.3,0,0.5-0.1,0.6H327.4z M329.2,359.2c0-0.4-0.2-1-0.9-1
				c-0.6,0-0.9,0.6-0.9,1H329.2z"/>
			<path class="st2" d="M332.7,357.3l0.5,0.8c0.1,0.2,0.3,0.5,0.4,0.7h0c0.1-0.3,0.2-0.5,0.4-0.8l0.4-0.8h1.7l-1.6,2.3l1.6,2.6h-1.7
				l-0.5-0.9c-0.1-0.2-0.3-0.5-0.4-0.7h0c-0.1,0.3-0.2,0.5-0.4,0.7l-0.5,0.9H331l1.7-2.5l-1.6-2.4H332.7z"/>
			<path class="st2" d="M338.4,355.9v1.4h1.1v1.1h-1.1v1.8c0,0.6,0.1,0.9,0.6,0.9c0.2,0,0.3,0,0.5,0l0,1.2c-0.2,0.1-0.6,0.1-1,0.1
				c-0.5,0-0.9-0.2-1.1-0.4c-0.3-0.3-0.4-0.8-0.4-1.5v-2h-0.6v-1.1h0.6v-1.1L338.4,355.9z"/>
			<path class="st2" d="M348.4,359.3c0-0.9-0.1-2.1-0.1-2.9h0c-0.2,0.8-0.5,1.6-0.8,2.6l-1.2,3.3h-0.7l-1.1-3.2
				c-0.3-0.9-0.6-1.8-0.8-2.6h0c0,0.8-0.1,2-0.1,3l-0.2,2.9h-0.8l0.5-6.7h1.1l1.2,3.3c0.3,0.8,0.5,1.6,0.7,2.3h0
				c0.2-0.7,0.4-1.4,0.7-2.3l1.2-3.3h1.1l0.4,6.7h-0.8L348.4,359.3z"/>
			<path class="st2" d="M351,357.4l1.1,2.9c0.1,0.3,0.2,0.7,0.3,1h0c0.1-0.3,0.2-0.7,0.3-1l1-2.8h0.9l-1.3,3.4
				c-0.6,1.7-1.1,2.5-1.7,3c-0.4,0.4-0.9,0.5-1.1,0.6l-0.2-0.7c0.2-0.1,0.5-0.2,0.8-0.4c0.2-0.2,0.5-0.5,0.7-1
				c0-0.1,0.1-0.2,0.1-0.2c0,0,0-0.1-0.1-0.2l-1.8-4.5H351z"/>
			<path class="st2" d="M355.4,358.9c0-0.6,0-1.1,0-1.5h0.8l0,0.9h0c0.2-0.6,0.7-1.1,1.3-1.1c0.1,0,0.2,0,0.2,0v0.8
				c-0.1,0-0.2,0-0.3,0c-0.6,0-1.1,0.5-1.2,1.1c0,0.1,0,0.3,0,0.4v2.6h-0.9V358.9z"/>
			<path class="st2" d="M359.6,356c0,0.3-0.2,0.5-0.6,0.5c-0.3,0-0.5-0.2-0.5-0.5c0-0.3,0.2-0.5,0.6-0.5
				C359.4,355.5,359.6,355.7,359.6,356z M358.7,362.2v-4.8h0.9v4.8H358.7z"/>
			<path class="st2" d="M363.7,362.2l-0.1-0.6h0c-0.3,0.4-0.8,0.7-1.5,0.7c-1,0-1.5-0.7-1.5-1.4c0-1.2,1-1.8,2.9-1.8V359
				c0-0.4-0.1-1.1-1.1-1.1c-0.4,0-0.9,0.1-1.3,0.4l-0.2-0.6c0.4-0.3,1-0.4,1.6-0.4c1.5,0,1.8,1,1.8,2v1.8c0,0.4,0,0.8,0.1,1.2H363.7
				z M363.6,359.7c-1,0-2,0.2-2,1.1c0,0.6,0.4,0.8,0.8,0.8c0.6,0,1-0.4,1.2-0.8c0-0.1,0-0.2,0-0.3V359.7z"/>
			<path class="st2" d="M370,355.1v5.8c0,0.4,0,0.9,0,1.2h-0.8l0-0.8h0c-0.3,0.5-0.9,1-1.6,1c-1.2,0-2.1-1-2.1-2.5
				c0-1.6,1-2.6,2.2-2.6c0.7,0,1.2,0.3,1.5,0.7h0v-2.9H370z M369.1,359.3c0-0.1,0-0.3,0-0.4c-0.1-0.6-0.6-1-1.3-1
				c-0.9,0-1.4,0.8-1.4,1.9c0,1,0.5,1.8,1.4,1.8c0.6,0,1.1-0.4,1.3-1c0-0.1,0-0.2,0-0.4V359.3z"/>
			<path class="st2" d="M373.6,355.6c0.4-0.1,1-0.1,1.7-0.1c0.9,0,1.5,0.2,1.9,0.6c0.4,0.3,0.6,0.8,0.6,1.4c0,0.6-0.2,1.1-0.5,1.4
				c-0.5,0.5-1.2,0.7-2.1,0.7c-0.3,0-0.5,0-0.7-0.1v2.7h-0.9V355.6z M374.5,358.8c0.2,0,0.4,0.1,0.7,0.1c1,0,1.7-0.5,1.7-1.4
				c0-0.9-0.6-1.3-1.6-1.3c-0.4,0-0.7,0-0.8,0.1V358.8z"/>
			<path class="st2" d="M378.9,358.9c0-0.6,0-1.1,0-1.5h0.8l0,0.9h0c0.2-0.6,0.7-1.1,1.3-1.1c0.1,0,0.2,0,0.2,0v0.8
				c-0.1,0-0.2,0-0.3,0c-0.6,0-1.1,0.5-1.2,1.1c0,0.1,0,0.3,0,0.4v2.6h-0.9V358.9z"/>
			<path class="st2" d="M386.6,359.8c0,1.8-1.2,2.6-2.4,2.6c-1.3,0-2.3-1-2.3-2.5c0-1.6,1.1-2.6,2.4-2.6
				C385.6,357.3,386.6,358.3,386.6,359.8z M382.7,359.8c0,1.1,0.6,1.9,1.5,1.9c0.8,0,1.5-0.8,1.5-1.9c0-0.8-0.4-1.9-1.4-1.9
				C383.2,357.9,382.7,358.9,382.7,359.8z"/>
			<path class="st2" d="M389,362.6l2.8-7.2h0.7l-2.8,7.2H389z"/>
			<path class="st2" d="M396.8,362.2l-2.2-6.7h0.9l1,3.3c0.3,0.9,0.5,1.7,0.7,2.5h0c0.2-0.8,0.5-1.6,0.8-2.5l1.1-3.3h0.9l-2.4,6.7
				H396.8z"/>
			<path class="st2" d="M402,360.1l-0.7,2.1h-0.9l2.3-6.7h1l2.3,6.7h-0.9l-0.7-2.1H402z M404.2,359.4l-0.7-1.9
				c-0.1-0.4-0.2-0.8-0.3-1.2h0c-0.1,0.4-0.2,0.8-0.3,1.2l-0.7,1.9H404.2z"/>
			<path class="st2" d="M408.7,356.5L408.7,356.5l-1.2,0.6l-0.2-0.7l1.4-0.8h0.7v6.5h-0.8V356.5z"/>
			<path class="st2" d="M416.2,358.9c0,2.2-0.8,3.4-2.3,3.4c-1.3,0-2.1-1.2-2.1-3.3c0-2.2,0.9-3.4,2.3-3.4
				C415.4,355.6,416.2,356.8,416.2,358.9z M412.7,359c0,1.7,0.5,2.6,1.3,2.6c0.9,0,1.3-1,1.3-2.7c0-1.6-0.4-2.6-1.3-2.6
				C413.2,356.3,412.7,357.2,412.7,359z"/>
			<path class="st2" d="M421.3,358.9c0,2.2-0.8,3.4-2.3,3.4c-1.3,0-2.1-1.2-2.1-3.3c0-2.2,0.9-3.4,2.3-3.4
				C420.6,355.6,421.3,356.8,421.3,358.9z M417.8,359c0,1.7,0.5,2.6,1.3,2.6c0.9,0,1.3-1,1.3-2.7c0-1.6-0.4-2.6-1.3-2.6
				C418.4,356.3,417.8,357.2,417.8,359z"/>
		</g>
	</g>
</g>
<text transform="matrix(1 0 0 1 82.5776 400.55)"><tspan x="0" y="0" class="st0 st3 st4">Title </tspan><tspan x="25.5" y="0" class="st0 st11 st12 st13">WEEKLY DISCOVER</tspan><tspan x="0" y="18" class="st10 st3 st4">TEXT DISCOVER OUR WEEKLY SUGGESTIONS</tspan><tspan x="0" y="36" class="st2 st3 st4">TEXT DISCOVER OUR WEEKLY SUGGESTIONS</tspan></text>
<text transform="matrix(1 0 0 1 307.9116 400.55)"><tspan x="0" y="0" class="st9 st3 st4">Title </tspan><tspan x="25.5" y="0" class="st9 st11 st12 st13">WEEKLY DISCOVER</tspan><tspan x="0" y="18" class="st10 st3 st4">TEXT DISCOVER OUR WEEKLY SUGGESTIONS</tspan><tspan x="0" y="36" class="st2 st3 st4">TEXT DISCOVER OUR WEEKLY SUGGESTIONS</tspan></text>
<rect x="123.3" y="538.9" class="st0" width="179.8" height="30.7"/>
<text transform="matrix(1 0 0 1 123.2993 531.549)" class="st10 st3 st4">Main call to action</text>
<text transform="matrix(1 0 0 1 367.4292 531.549)" class="st10 st3 st4">Components</text>
<text transform="matrix(1 0 0 1 99.3766 937.4318)" class="st10 st3 st4">Page Bottom</text>
<rect x="123.3" y="600.5" class="st2" width="87.2" height="30.7"/>
<rect x="215.9" y="600.5" class="st2" width="87.2" height="30.7"/>
<rect x="366.8" y="629.8" class="st2" width="76.5" height="17.7"/>
<g>
	<text transform="matrix(1 0 0 1 123.2993 593.215)" class="st10 st3 st4">2 options equal weight</text>
</g>
<text transform="matrix(1 0 0 1 123.2993 654.882)" class="st10 st3 st4">2 options one preferred</text>
<polygon class="st5" points="256,625.5 248.8,618.4 250.6,616.6 256,622 268.4,609.5 270.2,611.3 "/>
<g>
	
		<rect x="157.5" y="615.8" transform="matrix(0.7071 -0.7071 0.7071 0.7071 -387.8083 297.9143)" class="st5" width="16.4" height="2.5"/>
	
		<rect x="164.5" y="608.9" transform="matrix(0.7071 -0.7071 0.7071 0.7071 -387.8016 297.9027)" class="st5" width="2.5" height="16.4"/>
</g>
<g>
	
		<rect x="428.1" y="638.6" transform="matrix(0.7071 -0.7071 0.7071 0.7071 -324.8248 494.215)" class="st5" width="12.1" height="1.2"/>
	
		<rect x="433.5" y="633.1" transform="matrix(0.7071 -0.7071 0.7071 0.7071 -324.8197 494.1886)" class="st5" width="1.2" height="12.1"/>
</g>
<g>
	<rect x="446.9" y="678" class="st2" width="1.2" height="12.1"/>
	<rect x="441.4" y="683.4" class="st2" width="12.1" height="1.2"/>
</g>
<rect x="123.3" y="664.5" class="st9" width="87.2" height="30.7"/>
<rect x="215.9" y="664.5" class="st2" width="87.2" height="30.7"/>
<text transform="matrix(1 0 0 1 175.9659 558.216)" class="st5 st3 st12">BOOK A TABLE</text>
<text transform="matrix(1 0 0 1 372.9814 641.9606)" class="st10 st3 st4">#TagName</text>
<rect x="366.8" y="605.8" class="st9" width="76.5" height="17.7"/>
<g>
	
		<rect x="428.1" y="614.6" transform="matrix(0.7071 -0.7071 0.7071 0.7071 -307.8542 487.1855)" class="st5" width="12.1" height="1.2"/>
	
		<rect x="433.5" y="609.1" transform="matrix(0.7071 -0.7071 0.7071 0.7071 -307.8498 487.1597)" class="st5" width="1.2" height="12.1"/>
</g>
<text transform="matrix(1 0 0 1 372.9814 617.9606)" class="st5 st3 st4">#TagName</text>
<text transform="matrix(1 0 0 1 147.4659 684.048)" class="st5 st3 st4">Primary</text>
<text transform="matrix(1 0 0 1 234.9659 684.048)" class="st5 st3 st4">Secondary</text>
<path class="st1" d="M388.5,574.3c0,2.4-1.9,4.3-4.3,4.3h-12.5c-2.4,0-4.3-1.9-4.3-4.3v-12.5c0-2.4,1.9-4.3,4.3-4.3h12.5
	c2.4,0,4.3,1.9,4.3,4.3V574.3z"/>
<path class="st0" d="M427,574.3c0,2.4-1.9,4.3-4.3,4.3h-12.5c-2.4,0-4.3-1.9-4.3-4.3v-12.5c0-2.4,1.9-4.3,4.3-4.3h12.5
	c2.4,0,4.3,1.9,4.3,4.3V574.3z"/>
<rect x="100.8" y="948.3" class="st0" width="190.6" height="34.4"/>
<g>
	<circle class="st0" cx="164.1" cy="803" r="20"/>
	<line class="st14" x1="155.2" y1="794.9" x2="173" y2="794.9"/>
	<line class="st14" x1="155.2" y1="803" x2="173" y2="803"/>
	<line class="st14" x1="155.2" y1="811.2" x2="173" y2="811.2"/>
</g>
<g>
	<path class="st9" d="M494.4,824.3c-11.4,0-20.7-9.3-20.7-20.7c0-11.4,9.3-20.7,20.7-20.7s20.7,9.3,20.7,20.7
		C515.1,815,505.9,824.3,494.4,824.3z M494.4,785.9c-9.8,0-17.7,7.9-17.7,17.7c0,9.8,7.9,17.7,17.7,17.7s17.7-7.9,17.7-17.7
		C512.1,793.8,504.2,785.9,494.4,785.9z"/>
	<path class="st9" d="M494.4,814.5c-0.8,0-1.5-0.7-1.5-1.5v-19c0-0.8,0.7-1.5,1.5-1.5s1.5,0.7,1.5,1.5v19
		C495.9,813.9,495.3,814.5,494.4,814.5z"/>
	<path class="st9" d="M503.9,805.1h-19c-0.8,0-1.5-0.7-1.5-1.5s0.7-1.5,1.5-1.5h19c0.8,0,1.5,0.7,1.5,1.5S504.7,805.1,503.9,805.1z"
		/>
</g>
<g>
	<path class="st5" d="M194.9,979.2c-7.4,0-13.4-6-13.4-13.4c0-7.4,6-13.4,13.4-13.4c7.4,0,13.4,6,13.4,13.4
		C208.3,973.2,202.3,979.2,194.9,979.2z M194.9,954.4c-6.3,0-11.4,5.1-11.4,11.4c0,6.3,5.1,11.4,11.4,11.4c6.3,0,11.4-5.1,11.4-11.4
		C206.4,959.5,201.2,954.4,194.9,954.4z"/>
	<path class="st5" d="M194.9,972.9c-0.5,0-1-0.4-1-1v-12.2c0-0.5,0.4-1,1-1s1,0.4,1,1v12.2C195.9,972.5,195.5,972.9,194.9,972.9z"/>
	<path class="st5" d="M201.1,966.8h-12.2c-0.5,0-1-0.4-1-1c0-0.5,0.4-1,1-1h12.2c0.5,0,1,0.4,1,1C202,966.3,201.6,966.8,201.1,966.8
		z"/>
</g>
<g>
	<path class="st15" d="M214.3,814.5l-6,3.3c-0.4,0.2-0.7,0.4-1,0.7c3.5,3,8,4.7,13,4.7c4.9,0,9.4-1.8,12.9-4.7
		c-0.3-0.3-0.7-0.5-1.1-0.7l-6.4-3.2c-0.8-0.4-1.4-1.3-1.4-2.2v-2.5c0.2-0.2,0.4-0.5,0.6-0.8c0.9-1.2,1.5-2.6,2-4
		c0.8-0.3,1.4-1,1.4-1.9v-2.7c0-0.6-0.3-1.1-0.7-1.5V795c0,0,0.8-6.1-7.4-6.1c-8.2,0-7.4,6.1-7.4,6.1v3.9c-0.4,0.4-0.7,0.9-0.7,1.5
		v2.7c0,0.7,0.4,1.3,0.9,1.7c0.7,2.9,2.4,5.1,2.4,5.1v2.5C215.6,813.2,215.1,814.1,214.3,814.5z"/>
	<g>
		<path class="st9" d="M220.6,782.8c-11.1-0.2-20.3,8.7-20.5,19.8c-0.1,6.3,2.7,12,7.2,15.8c0.3-0.3,0.6-0.5,1-0.7l6-3.3
			c0.8-0.4,1.3-1.3,1.3-2.2v-2.5c0,0-1.8-2.1-2.4-5.1c-0.6-0.4-0.9-1-0.9-1.7v-2.7c0-0.6,0.3-1.1,0.7-1.5V795c0,0-0.8-6.1,7.4-6.1
			c8.2,0,7.4,6.1,7.4,6.1v3.9c0.4,0.4,0.7,0.9,0.7,1.5v2.7c0,0.9-0.6,1.7-1.4,1.9c-0.5,1.4-1.1,2.8-2,4c-0.2,0.3-0.4,0.6-0.6,0.8
			v2.5c0,0.9,0.5,1.8,1.4,2.2l6.4,3.2c0.4,0.2,0.7,0.4,1.1,0.7c4.3-3.6,7.2-9,7.3-15.2C240.7,792.2,231.8,783,220.6,782.8z"/>
	</g>
</g>
<g>
	<path class="st15" d="M266.4,971.7l-3.1,1.7c-0.2,0.1-0.3,0.2-0.5,0.4c1.8,1.5,4.1,2.4,6.7,2.4c2.5,0,4.8-0.9,6.6-2.4
		c-0.2-0.1-0.3-0.3-0.5-0.4l-3.3-1.7c-0.4-0.2-0.7-0.6-0.7-1.1v-1.3c0.1-0.1,0.2-0.2,0.3-0.4c0.5-0.6,0.8-1.3,1-2.1
		c0.4-0.1,0.7-0.5,0.7-1v-1.4c0-0.3-0.1-0.6-0.3-0.8v-2c0,0,0.4-3.1-3.8-3.1c-4.2,0-3.8,3.1-3.8,3.1v2c-0.2,0.2-0.3,0.5-0.3,0.8v1.4
		c0,0.4,0.2,0.7,0.5,0.9c0.3,1.5,1.3,2.6,1.3,2.6v1.3C267.1,971,266.8,971.5,266.4,971.7z"/>
	<g>
		<path class="st9" d="M269.7,955.5c-5.7-0.1-10.4,4.5-10.5,10.2c-0.1,3.2,1.4,6.2,3.7,8.1c0.2-0.1,0.3-0.3,0.5-0.3l3.1-1.7
			c0.4-0.2,0.7-0.6,0.7-1.1v-1.3c0,0-0.9-1.1-1.3-2.6c-0.3-0.2-0.5-0.5-0.5-0.9v-1.4c0-0.3,0.1-0.6,0.3-0.8v-2c0,0-0.4-3.1,3.8-3.1
			c4.2,0,3.8,3.1,3.8,3.1v2c0.2,0.2,0.3,0.5,0.3,0.8v1.4c0,0.5-0.3,0.9-0.7,1c-0.2,0.7-0.6,1.4-1,2.1c-0.1,0.2-0.2,0.3-0.3,0.4v1.3
			c0,0.5,0.3,0.9,0.7,1.1l3.3,1.7c0.2,0.1,0.4,0.2,0.5,0.4c2.2-1.9,3.7-4.6,3.7-7.8C280,960.3,275.4,955.6,269.7,955.5z"/>
	</g>
</g>
<g>
	<path class="st0" d="M276.5,793.4c1.5-3.3,4.7-6.4,8.7-6.4c5.3,0,9.1,4.3,9.6,9.4c0,0,0.3,1.3-0.3,3.6c-0.8,3.1-2.6,5.9-5.1,8
		l-12.9,11l-12.9-11c-2.5-2.1-4.3-4.9-5.1-8c-0.6-2.3-0.3-3.6-0.3-3.6c0.5-5.1,4.3-9.4,9.6-9.4C271.7,787,275,790.1,276.5,793.4z"/>
</g>
<g>
	<path class="st5" d="M234.2,960.8c0.8-1.7,2.5-3.3,4.5-3.3c2.7,0,4.7,2.2,5,4.9c0,0,0.1,0.7-0.2,1.8c-0.4,1.6-1.3,3.1-2.6,4.2
		l-6.7,5.7l-6.7-5.7c-1.3-1.1-2.2-2.5-2.6-4.2c-0.3-1.2-0.2-1.8-0.2-1.8c0.2-2.7,2.2-4.9,5-4.9C231.8,957.5,233.5,959.1,234.2,960.8
		z"/>
</g>
<g>
	<path class="st0" d="M340.9,785.2L340.9,785.2c-5.4-5.4-14.1-5.4-19.5,0l0,0c-4.9,4.9-5.4,14-1.3,19.5l11,15.9l11-15.9
		C346.3,799.2,345.8,790,340.9,785.2z M331.3,799.3c-2.5,0-4.5-2-4.5-4.6c0-2.5,2-4.5,4.5-4.5c2.5,0,4.6,2,4.6,4.5
		C335.9,797.3,333.8,799.3,331.3,799.3z"/>
</g>
<g>
	<path class="st5" d="M160.7,957.7L160.7,957.7c-2.8-2.8-7.3-2.8-10.1,0l0,0c-2.5,2.5-2.8,7.2-0.7,10.1l5.7,8.2l5.7-8.2
		C163.5,964.9,163.2,960.2,160.7,957.7z M155.7,965c-1.3,0-2.4-1.1-2.4-2.4c0-1.3,1.1-2.4,2.4-2.4c1.3,0,2.4,1.1,2.4,2.4
		C158.1,964,157,965,155.7,965z"/>
</g>
<g>
	<path class="st2" d="M400.5,801.3l-2.1-0.4c-3.1-0.6-4.6-4.3-2.7-6.8l1.3-1.8l-2.9-2.9l-1.8,1.2c-2.6,1.8-6.2,0.2-6.7-2.9l-0.3-2.2
		h-4l-0.5,2.7c-0.6,3.1-4.1,4.5-6.7,2.8l-2.3-1.6l-2.9,2.9l1.3,1.8c1.9,2.6,0.5,6.2-2.7,6.8l-2.1,0.4v4l2.2,0.3
		c3.2,0.5,4.7,4.1,2.9,6.7l-1.2,1.8l2.9,2.9l1.8-1.3c2.6-1.9,6.2-0.5,6.8,2.7l0.4,2.1h4l0.2-1.6c0.5-3.2,4.2-4.8,6.9-2.8l1.3,0.9
		l2.9-2.9l-1.2-1.8c-1.8-2.6-0.2-6.2,2.9-6.7l2.2-0.3V801.3z"/>
	<g>
		<path class="st5" d="M382.9,797.2c3.2,0,5.8,2.6,5.8,5.8c0,3.2-2.6,5.8-5.8,5.8c-3.2,0-5.8-2.6-5.8-5.8
			C377.1,799.8,379.7,797.2,382.9,797.2z"/>
		<path class="st9" d="M382.9,810.3c-4,0-7.3-3.3-7.3-7.3c0-4,3.3-7.3,7.3-7.3c4,0,7.3,3.3,7.3,7.3
			C390.2,807.1,387,810.3,382.9,810.3z M382.9,798.6c-2.4,0-4.4,2-4.4,4.4s2,4.4,4.4,4.4c2.4,0,4.4-2,4.4-4.4
			S385.4,798.6,382.9,798.6z"/>
	</g>
</g>
<text transform="matrix(1 0 0 1 350.8515 937.4318)" class="st10 st3 st4">Page Title ?</text>
<rect x="351.5" y="947.6" class="st0" width="190.6" height="42.2"/>
<path class="st5" d="M363.6,954.8c0,0.8-0.6,1.4-1.4,1.4c-0.8,0-1.4-0.6-1.4-1.4c0-0.8,0.6-1.4,1.4-1.4
	C362.9,953.4,363.6,954,363.6,954.8z"/>
<path class="st5" d="M368.2,954.8c0,0.8-0.6,1.4-1.4,1.4s-1.4-0.6-1.4-1.4c0-0.8,0.6-1.4,1.4-1.4S368.2,954,368.2,954.8z"/>
<path class="st5" d="M372.9,954.8c0,0.8-0.6,1.4-1.4,1.4s-1.4-0.6-1.4-1.4c0-0.8,0.6-1.4,1.4-1.4S372.9,954,372.9,954.8z"/>
<path class="st5" d="M377.6,954.8c0,0.8-0.6,1.4-1.4,1.4s-1.4-0.6-1.4-1.4c0-0.8,0.6-1.4,1.4-1.4S377.6,954,377.6,954.8z"/>
<text transform="matrix(1 0 0 1 380.5224 956.6818)" class="st5 st3 st16">AT&amp;T</text>
<text transform="matrix(1 0 0 1 440.0736 956.8703)" class="st5 st3 st17">9:02PM</text>
<g>
	<path class="st5" d="M398,953.7l0.5,0.5c1.8-1.8,4.6-1.8,6.4-0.1l0.4-0.4C403.2,951.8,400,951.8,398,953.7z"/>
	<path class="st5" d="M399.3,955l0.4,0.4c1.1-1.1,2.8-1.1,3.9-0.1l0.4-0.4C402.7,953.7,400.6,953.7,399.3,955z"/>
	<path class="st5" d="M400.6,956.3l1,1l1.1-1.1C402.1,955.7,401.2,955.7,400.6,956.3z"/>
</g>
<path class="st5" d="M534.6,955.9c0,0.4-0.3,0.7-0.7,0.7h-7.3c-0.4,0-0.7-0.3-0.7-0.7v-2.3c0-0.4,0.3-0.7,0.7-0.7h7.3
	c0.4,0,0.7,0.3,0.7,0.7V955.9z"/>
<line class="st18" x1="535.6" y1="954.1" x2="535.6" y2="955.4"/>
<polyline class="st19" points="368.2,983.5 360.8,976.1 368.2,968.7 "/>
<line class="st19" x1="515" y1="970.3" x2="531.3" y2="970.3"/>
<line class="st19" x1="515" y1="976.1" x2="531.3" y2="976.1"/>
<line class="st19" x1="515" y1="981.9" x2="531.3" y2="981.9"/>
<g>
	<text transform="matrix(1 0 0 1 391.852 979.8826)" class="st5 st11 st4 st13">DISCOVER WEEKLY</text>
</g>
<polygon class="st5" points="414.5,572.9 409.6,568.1 410.8,566.8 414.5,570.5 422.9,562 424.2,563.2 "/>
<circle class="st1" cx="379.3" cy="684" r="10.6"/>
<circle class="st1" cx="413" cy="684" r="10.6"/>
<g>
	<path class="st2" d="M373.5,682.9c0.4,0,0.7,0.1,1,0.4c0.3,0.3,0.4,0.6,0.4,1s-0.1,0.7-0.4,1s-0.6,0.4-1,0.4s-0.7-0.1-1-0.4
		s-0.4-0.6-0.4-1s0.1-0.7,0.4-1C372.8,683,373.1,682.9,373.5,682.9z"/>
	<path class="st2" d="M378.9,682.9c0.4,0,0.7,0.1,1,0.4c0.3,0.3,0.4,0.6,0.4,1s-0.1,0.7-0.4,1s-0.6,0.4-1,0.4s-0.7-0.1-1-0.4
		s-0.4-0.6-0.4-1s0.1-0.7,0.4-1C378.2,683,378.6,682.9,378.9,682.9z"/>
	<path class="st2" d="M384.4,682.9c0.4,0,0.7,0.1,1,0.4c0.3,0.3,0.4,0.6,0.4,1s-0.1,0.7-0.4,1s-0.6,0.4-1,0.4s-0.7-0.1-1-0.4
		s-0.4-0.6-0.4-1s0.1-0.7,0.4-1C383.7,683,384.1,682.9,384.4,682.9z"/>
</g>
<path class="st2" d="M407.2,681.4h11.5c0,0-5.4,8.6-5.8,8.2C412.6,689.1,407.2,681.4,407.2,681.4z"/>
<circle class="st1" cx="447.5" cy="684" r="10.6"/>
<polygon class="st5" points="130.8,966.5 121.4,957.4 111.9,966.5 114.7,966.5 114.7,974.2 119.3,974.2 119.3,968.7 123.4,968.7 
	123.4,974.2 128,974.2 128,966.5 "/>
<g>
	<circle class="st9" cx="438.3" cy="803" r="20.9"/>
	<path class="st5" d="M439.8,810.2l-5.6-5c0.4-0.9,0.4-2-0.1-2.9l5.9-5.9c1.3,0.7,2.9,0.5,3.9-0.6c1.3-1.3,1.3-3.4,0-4.8
		c-1.3-1.3-3.4-1.3-4.8,0c-1.1,1.1-1.2,2.7-0.6,3.9l-5.9,5.9c-1.3-0.7-2.9-0.5-3.9,0.6c-1.3,1.3-1.3,3.4,0,4.8
		c1.1,1.1,2.8,1.3,4.1,0.5l5.6,5c-0.6,1.2-0.3,2.7,0.7,3.8c1.3,1.3,3.4,1.3,4.8,0c1.3-1.3,1.3-3.4,0-4.8
		C442.8,809.6,441.1,809.4,439.8,810.2z"/>
</g>
</svg>
