<?xml version="1.0" encoding="UTF-8"?>
<svg width="32px" height="32px" viewBox="0 0 32 32" version="1.1" xmlns="http://www.w3.org/2000/svg" xmlns:xlink="http://www.w3.org/1999/xlink">
    <!-- Generator: Sketch 52.1 (67048) - http://www.bohemiancoding.com/sketch -->
    <title>github icon</title>
    <desc>Created with Sketch.</desc>
    <g id="Page-1" stroke="none" stroke-width="1" fill="none" fill-rule="evenodd">
        <g id="Desktop-HD-(1)" transform="translate(-130.000000, -166.000000)" fill="#6E8994" fill-rule="nonzero">
            <g id="github-icon" transform="translate(130.000000, 166.000000)">
                <path d="M10.8153947,22.2236025 C10.891933,22.1043478 10.8632311,21.9751553 10.729289,21.8360248 C10.5570776,21.6968944 10.4231355,21.6770186 10.3274625,21.7763975 C10.2509241,21.8956522 10.279626,22.0248447 10.4135682,22.1639752 C10.5857795,22.3031056 10.7197217,22.3229814 10.8153947,22.2236025 Z M10.7619048,21.2924443 C10.6560847,21.1499803 10.5291005,21.1092763 10.3809524,21.1703323 C10.2539683,21.2517403 10.2539683,21.3738523 10.3809524,21.5366683 C10.5291005,21.6994843 10.6560847,21.7503643 10.7619048,21.6893083 C10.8888889,21.6079003 10.8888889,21.4756123 10.7619048,21.2924443 Z M9.12515215,20.6240409 C9.17826712,20.5772744 9.11187341,20.5305079 8.92597101,20.4837413 C8.74006861,20.4603581 8.63383866,20.4720497 8.60728118,20.5188162 C8.52760872,20.5772744 8.58072369,20.6240409 8.76662609,20.6591158 C8.97908598,20.6824991 9.09859467,20.6708075 9.12515215,20.6240409 Z M10.2262593,21.657337 C10.2758051,21.6336084 10.2943848,21.580219 10.2819983,21.4971687 C10.2696119,21.4141185 10.2262593,21.3488648 10.1519405,21.3014075 C10.0033031,21.1353071 9.87943848,21.0997142 9.78034682,21.1946287 C9.68125516,21.2895432 9.69364162,21.4200507 9.81750619,21.5861511 C9.96614368,21.7285229 10.1023947,21.7522515 10.2262593,21.657337 Z M11.4207969,22.6904762 C11.4544866,22.531746 11.3786848,22.4070295 11.1933916,22.3163265 C11.0417881,22.2482993 10.9322967,22.2936508 10.8649174,22.452381 C10.8312277,22.6111111 10.9070295,22.7358277 11.0923226,22.8265306 C11.2439261,22.8945578 11.3534176,22.8492063 11.4207969,22.6904762 Z M12.5714286,22.5714286 C12.5714286,22.3809524 12.4675325,22.2857143 12.2597403,22.2857143 C12.0865801,22.2857143 12,22.3809524 12,22.5714286 C12,22.7619048 12.0952381,22.8571429 12.2857143,22.8571429 C12.4761905,22.8571429 12.5714286,22.7619048 12.5714286,22.5714286 Z M13.7142857,22.4820677 C13.6801314,22.3137648 13.5691297,22.2536566 13.3812808,22.3017431 C13.1934319,22.3498297 13.1165846,22.4580244 13.1507389,22.6263274 C13.1848933,22.8186736 13.2873563,22.8908034 13.4581281,22.8427169 C13.6288998,22.7946303 13.7142857,22.6744139 13.7142857,22.4820677 Z M26.8571429,16.5522371 C26.8571429,13.5605109 25.796875,11.0062541 23.6763393,8.88946677 C21.5558036,6.7726794 18.9970238,5.71428571 16,5.71428571 C13.0029762,5.71428571 10.4441964,6.7726794 8.32366071,8.88946677 C6.203125,11.0062541 5.14285714,13.5605109 5.14285714,16.5522371 C5.14285714,18.908927 5.83556548,21.0292424 7.22098214,22.9131831 C8.60639881,24.7971239 10.3876488,26.1060041 12.5647321,26.8398237 C12.8191964,26.8821594 13.0065104,26.8468796 13.1266741,26.7339843 C13.2468378,26.621089 13.3069196,26.4799698 13.3069196,26.3106268 C13.3069196,25.5768072 13.2998512,24.9064912 13.2857143,24.2996788 C13.2008929,24.3137908 13.0913318,24.3314307 12.9570312,24.3525985 C12.8227307,24.3737664 12.5718006,24.3878783 12.2042411,24.3949343 C11.8366815,24.4019902 11.4973958,24.3737664 11.1863839,24.3102628 C10.875372,24.2467592 10.5678943,24.10564 10.2639509,23.8869053 C9.96000744,23.6681706 9.7514881,23.3753484 9.63839286,23.0084385 C9.31324405,22.1758355 8.91034226,21.6536946 8.4296875,21.4420159 C8.40141369,21.427904 8.36960565,21.4032081 8.33426339,21.3679283 L8.16462054,21.1985853 L8.01618304,20.9974905 L8.10100446,20.8387315 L8.51450893,20.7646439 C8.59933036,20.7646439 8.70535714,20.7787558 8.83258929,20.8069797 C8.95982143,20.8352035 9.171875,20.9445709 9.46875,21.1350817 C9.765625,21.3255926 9.99888393,21.5760791 10.1685268,21.8865412 C10.3947173,22.2816749 10.6597842,22.5780251 10.9637277,22.7755919 C11.2676711,22.9731588 11.5751488,23.0719422 11.8861607,23.0719422 C12.1971726,23.0719422 12.4657738,23.0472463 12.6919643,22.9978546 C12.9181548,22.9484629 13.1302083,22.8814313 13.328125,22.7967598 C13.4270833,22.1334998 13.6603423,21.6466387 14.0279018,21.3361765 C13.3351935,21.251505 12.7273065,21.1209698 12.2042411,20.9445709 C11.6811756,20.7681719 11.1651786,20.4929896 10.65625,20.1190238 C10.1473214,19.745058 9.75502232,19.2088052 9.47935268,18.5102654 C9.20368304,17.8117255 9.06584821,16.9685386 9.06584821,15.9807045 C9.06584821,14.8658631 9.44047619,13.8991969 10.1897321,13.0807058 C9.85044643,12.205767 9.88578869,11.2461567 10.2957589,10.2018749 C10.5643601,10.1172034 10.9495908,10.1701231 11.4514509,10.360634 C11.953311,10.5511449 12.3809524,10.7592956 12.734375,10.9850863 L13.2857143,11.3237723 C14.1056548,11.0838697 15.0104167,10.9639184 16,10.9639184 C16.9895833,10.9639184 17.8943452,11.0838697 18.7142857,11.3237723 C18.8697917,11.2249888 19.0712426,11.0979816 19.3186384,10.9427505 C19.5660342,10.7875194 19.9583333,10.6040645 20.4955357,10.3923858 C21.0327381,10.1807071 21.4356399,10.1172034 21.7042411,10.2018749 C22.1142113,11.2461567 22.1495536,12.205767 21.8102679,13.0807058 C22.5595238,13.8991969 22.9341518,14.8658631 22.9341518,15.9807045 C22.9341518,16.7850837 22.8351935,17.4942074 22.6372768,18.1080758 C22.4393601,18.7219441 22.1884301,19.2158612 21.8844866,19.5898269 C21.5805432,19.9637927 21.202381,20.2777828 20.75,20.5317973 C20.297619,20.7858118 19.8558408,20.9692667 19.4246652,21.082162 C18.9934896,21.1950574 18.5093006,21.2797289 17.9720982,21.3361765 C18.4668899,21.7736459 18.7142857,22.4439619 18.7142857,23.3471245 C18.7142857,23.9116012 18.7107515,24.5395814 18.703683,25.2310653 C18.6966146,25.9225492 18.6930804,26.282403 18.6930804,26.3106268 C18.6930804,26.4799698 18.7531622,26.621089 18.8733259,26.7339843 C18.9934896,26.8468796 19.1808036,26.8821594 19.4352679,26.8398237 C21.6123512,26.1060041 23.3936012,24.7971239 24.7790179,22.9131831 C26.1644345,21.0292424 26.8571429,18.908927 26.8571429,16.5522371 Z M32,6 L32,26 C32,27.6527778 31.4131944,29.0659722 30.2395833,30.2395833 C29.0659722,31.4131944 27.6527778,32 26,32 L6,32 C4.34722222,32 2.93402778,31.4131944 1.76041667,30.2395833 C0.586805556,29.0659722 0,27.6527778 0,26 L0,6 C0,4.34722222 0.586805556,2.93402778 1.76041667,1.76041667 C2.93402778,0.586805556 4.34722222,0 6,0 L26,0 C27.6527778,0 29.0659722,0.586805556 30.2395833,1.76041667 C31.4131944,2.93402778 32,4.34722222 32,6 Z" id="Shape"></path>
            </g>
        </g>
    </g>
</svg>