<?xml version="1.0" encoding="UTF-8"?>
<svg width="32px" height="32px" viewBox="0 0 32 32" version="1.1" xmlns="http://www.w3.org/2000/svg" xmlns:xlink="http://www.w3.org/1999/xlink">
    <!-- Generator: Sketch 52.1 (67048) - http://www.bohemiancoding.com/sketch -->
    <title>linkedin icon</title>
    <desc>Created with Sketch.</desc>
    <g id="Page-1" stroke="none" stroke-width="1" fill="none" fill-rule="evenodd">
        <g id="Desktop-HD-(1)" transform="translate(-82.000000, -167.000000)" fill="#6E8994" fill-rule="nonzero">
            <g id="linkedin-icon" transform="translate(82.000000, 167.000000)">
                <path d="M5,27 L10,27 L10,13 L5,13 L5,27 Z M10,7.5 C9.98717949,6.77777778 9.75641026,6.18055556 9.30769231,5.70833333 C8.85897436,5.23611111 8.26282051,5 7.51923077,5 C6.77564103,5 6.16987179,5.23611111 5.70192308,5.70833333 C5.23397436,6.18055556 5,6.77777778 5,7.5 C5,8.20833333 5.2275641,8.80208333 5.68269231,9.28125 C6.13782051,9.76041667 6.73076923,10 7.46153846,10 L7.48076923,10 C8.23717949,10 8.84615385,9.76041667 9.30769231,9.28125 C9.76923077,8.80208333 10,8.20833333 10,7.5 Z M22.078125,27 L27,27 L27,18.5915493 C27,16.4225352 26.4815341,14.7816901 25.4446023,13.6690141 C24.4076705,12.556338 23.0369318,12 21.3323864,12 C19.4005682,12 17.9161932,12.8239437 16.8792614,14.471831 L16.921875,14.471831 L16.921875,12.3380282 L12,12.3380282 C12.0426136,13.2676056 12.0426136,18.1549296 12,27 L16.921875,27 L16.921875,18.8028169 C16.921875,18.2676056 16.9715909,17.8732394 17.0710227,17.6197183 C17.2840909,17.1267606 17.6036932,16.7077465 18.0298295,16.3626761 C18.4559659,16.0176056 18.9815341,15.8450704 19.6065341,15.8450704 C21.2542614,15.8450704 22.078125,16.9507042 22.078125,19.1619718 L22.078125,27 Z M32,6 L32,26 C32,27.6527778 31.4131944,29.0659722 30.2395833,30.2395833 C29.0659722,31.4131944 27.6527778,32 26,32 L6,32 C4.34722222,32 2.93402778,31.4131944 1.76041667,30.2395833 C0.586805556,29.0659722 0,27.6527778 0,26 L0,6 C0,4.34722222 0.586805556,2.93402778 1.76041667,1.76041667 C2.93402778,0.586805556 4.34722222,0 6,0 L26,0 C27.6527778,0 29.0659722,0.586805556 30.2395833,1.76041667 C31.4131944,2.93402778 32,4.34722222 32,6 Z" id="Shape"></path>
            </g>
        </g>
    </g>
</svg>