<?xml version="1.0" encoding="iso-8859-1"?>
<!-- Generator: Adobe Illustrator 19.0.0, SVG Export Plug-In . SVG Version: 6.00 Build 0)  -->
<svg version="1.1" id="Capa_1" xmlns="http://www.w3.org/2000/svg" xmlns:xlink="http://www.w3.org/1999/xlink" x="0px" y="0px"
	 viewBox="0 0 512.009 512.009" style="enable-background:new 0 0 512.009 512.009;" xml:space="preserve">
<g>
	<g>
		<path d="M498.072,15.382C487.883,5.474,471.982,4.878,461,14.077L251.761,193.134c-50.483,43.33-174.137,187.83-179.38,193.968
			c-2.89,3.376-2.694,8.415,0.452,11.561l34.104,34.104c1.654,1.654,3.845,2.498,6.036,2.498c1.833,0,3.675-0.588,5.227-1.799
			c6.864-5.337,168.834-131.549,229.752-202.921l150.844-176.72C508.985,42.904,508.712,26.056,498.072,15.382z M486.067,42.478
			L334.976,219.479c-53.331,62.488-191.07,172.073-221.32,195.887l-23.174-23.174c24.342-28.264,128.607-148.542,172.38-186.107
			L472.024,27.097c4.169-3.504,10.257-3.274,14.06,0.418C490.117,31.564,490.219,38.019,486.067,42.478z"/>
	</g>
</g>
<g>
	<g>
		<path d="M119.036,416.227l-29.245-29.586c-2.438-2.447-6.105-3.206-9.285-1.901l-6.906,2.814
			C30.023,405.322,1.964,447.228,2.126,494.266v9.208c0,2.268,0.904,4.434,2.507,6.036s3.76,2.49,6.019,2.49
			c0.017,0,0.026,0,0.034,0.009c51.438-0.205,96.575-35.068,109.739-84.732l0.767-2.814
			C121.994,421.53,121.167,418.393,119.036,416.227z M19.178,494.539v-0.307c-0.136-40.073,23.754-75.754,60.859-90.888l1.629-0.665
			l21.776,22.04C92.4,463.24,58.663,490.882,19.178,494.539z"/>
	</g>
</g>
<g>
	<g>
		
			<rect x="215.282" y="245.605" transform="matrix(0.7071 -0.7071 0.7071 0.7071 -133.6941 240.7862)" width="17.052" height="72.343"/>
	</g>
</g>
<g>
	<g>
		
			<rect x="189.691" y="271.2" transform="matrix(0.7071 -0.7071 0.7071 0.7071 -159.2879 230.187)" width="17.052" height="72.343"/>
	</g>
</g>
<g>
	<g>
		<path d="M509.062,281.856c-12.874-59.273-41.232-114.343-82.004-159.267l-12.619,11.468
			c38.768,42.707,65.728,95.066,77.928,151.261c1.177,5.934,0.205,12.124-2.745,17.41c-6.855,12.32-22.449,16.771-34.838,9.873
			l-17.538-9.617c-15.952-8.833-36.065-5.994-48.846,6.778c-13.028,12.567-16.251,32.527-7.895,48.471l34.88,68.217
			c0.887,1.731,1.663,3.53,2.302,5.38c7.75,22.185-3.99,46.552-26.013,54.251c-76.922,25.067-177.812-4.033-257.027-74.245
			l-11.306,12.755c63.426,56.221,140.484,87.341,210.117,87.341c22.21,0,43.671-3.172,63.673-9.694
			c31.061-10.862,47.499-44.967,36.654-76.036c-0.912-2.583-1.978-5.099-3.223-7.52l-34.914-68.285
			c-4.902-9.362-3.018-21.025,4.698-28.469c7.529-7.529,19.295-9.2,28.665-4.007l17.521,9.609
			c20.556,11.433,46.552,4.024,57.986-16.515C509.42,302.208,511.04,291.9,509.062,281.856z"/>
	</g>
</g>
<g>
	<g>
		<path d="M52.285,50.595c-76.317,76.402-64.048,218.455,28.537,330.428l13.139-10.879C7.012,264.991-5.718,132.795,64.341,62.65
			C136.25-9.156,274.969,7.137,380.164,99.764l11.271-12.798C277.647-13.232,131.85-28.869,52.285,50.595z"/>
	</g>
</g>
<g>
	<g>
		<path d="M274.961,51.592c-23.506,0-42.63,19.124-42.63,42.63s19.124,42.63,42.63,42.63c23.506,0,42.63-19.124,42.63-42.63
			S298.467,51.592,274.961,51.592z M274.961,119.801c-14.102,0-25.578-11.476-25.578-25.578c0-14.102,11.476-25.578,25.578-25.578
			c14.111,0,25.578,11.476,25.578,25.578C300.539,108.325,289.063,119.801,274.961,119.801z"/>
	</g>
</g>
<g>
	<g>
		<path d="M164.122,34.54c-23.506,0-42.63,19.124-42.63,42.63s19.124,42.63,42.63,42.63s42.63-19.124,42.63-42.63
			S187.628,34.54,164.122,34.54z M164.122,102.749c-14.102,0-25.578-11.476-25.578-25.578s11.476-25.578,25.578-25.578
			c14.111,0,25.578,11.476,25.578,25.578S178.224,102.749,164.122,102.749z"/>
	</g>
</g>
<g>
	<g>
		<path d="M87.387,111.275c-23.506,0-42.63,19.124-42.63,42.63c0,23.506,19.124,42.63,42.63,42.63
			c23.506,0,42.63-19.124,42.63-42.63C130.017,130.399,110.893,111.275,87.387,111.275z M87.387,179.483
			c-14.102,0-25.578-11.476-25.578-25.578c0-14.102,11.476-25.578,25.578-25.578c14.111,0,25.578,11.476,25.578,25.578
			C112.965,168.007,101.489,179.483,87.387,179.483z"/>
	</g>
</g>
<g>
	<g>
		<path d="M104.439,213.588c-23.506,0-42.63,19.124-42.63,42.63s19.124,42.63,42.63,42.63c23.506,0,42.63-19.124,42.63-42.63
			S127.946,213.588,104.439,213.588z M104.439,281.796c-14.102,0-25.578-11.476-25.578-25.578c0-14.102,11.476-25.578,25.578-25.578
			c14.111,0,25.578,11.476,25.578,25.578C130.017,270.32,118.541,281.796,104.439,281.796z"/>
	</g>
</g>
<g>
	<g>
		<path d="M249.383,367.057c-23.506,0-42.63,19.124-42.63,42.63c0,23.506,19.124,42.63,42.63,42.63
			c23.506,0,42.63-19.124,42.63-42.63C292.013,386.181,272.889,367.057,249.383,367.057z M249.383,435.266
			c-14.102,0-25.578-11.476-25.578-25.578c0-14.102,11.476-25.578,25.578-25.578c14.111,0,25.578,11.476,25.578,25.578
			C274.961,423.79,263.485,435.266,249.383,435.266z"/>
	</g>
</g>
<g>
	<g>
		<path d="M407.115,205.062c-21.153,0-38.367,17.214-38.367,38.367s17.214,38.367,38.367,38.367
			c21.162,0,38.367-17.214,38.367-38.367S428.268,205.062,407.115,205.062z M407.115,264.744c-11.757,0-21.315-9.566-21.315-21.315
			c0-11.749,9.558-21.315,21.315-21.315c11.758,0,21.315,9.566,21.315,21.315C428.43,255.178,418.873,264.744,407.115,264.744z"/>
	</g>
</g>
<g>
</g>
<g>
</g>
<g>
</g>
<g>
</g>
<g>
</g>
<g>
</g>
<g>
</g>
<g>
</g>
<g>
</g>
<g>
</g>
<g>
</g>
<g>
</g>
<g>
</g>
<g>
</g>
<g>
</g>
</svg>
